<svg width="47" height="16" viewBox="0 0 47 16" fill="none" xmlns="http://www.w3.org/2000/svg">
<path d="M1.14819 7C0.595909 7 0.148193 7.44772 0.148193 8C0.148193 8.55228 0.595909 9 1.14819 9V7ZM46.7071 8.70711C47.0977 8.31658 47.0977 7.68342 46.7071 7.29289L40.3432 0.928932C39.9527 0.538408 39.3195 0.538408 38.929 0.928932C38.5384 1.31946 38.5384 1.95262 38.929 2.34315L44.5858 8L38.929 13.6569C38.5384 14.0474 38.5384 14.6805 38.929 15.0711C39.3195 15.4616 39.9527 15.4616 40.3432 15.0711L46.7071 8.70711ZM1.14819 9H46V7H1.14819V9Z" fill="#E4E4E4"/>
</svg>
