<svg width="100" height="118" viewBox="0 0 100 118" fill="none" xmlns="http://www.w3.org/2000/svg">
<path d="M31.2735 5.10165C33.5073 3.76136 37.5282 2.06365 40.2088 1.34883C42.8894 0.634006 47.089 0.00853616 49.5908 0.00853616C52.0034 -0.0808167 56.471 0.544653 59.4197 1.25948C62.3683 2.06365 66.4785 3.672 68.5336 4.92294C70.6781 6.08453 74.1629 8.94382 76.3967 11.3563C78.6305 13.6795 81.8472 18.4152 83.5449 21.8106C85.2426 25.206 87.4764 31.282 88.4593 35.2136C89.4422 39.1451 90.6038 47.0081 91.0506 52.6374C91.676 60.7685 92.6589 65.3255 95.6076 74.5288C98.4669 83.2854 99.4497 88.1105 99.8965 94.1864C100.165 99.1009 99.8965 103.569 99.271 105.624C98.5562 108.036 97.752 108.93 96.5011 108.93C95.2501 108.93 93.9099 107.411 91.8547 103.39C90.2464 100.352 88.5487 97.7606 88.0126 97.5819C87.4764 97.4925 85.332 100.799 83.0982 105.087C80.8643 109.287 78.0944 113.576 76.8435 114.559C75.1458 115.899 74.1629 116.078 72.8226 115.363C71.8397 114.827 69.6059 112.057 67.8188 109.198C66.0318 106.338 64.066 104.015 63.4405 104.015C62.8151 104.015 60.4025 106.785 58.1687 110.27C55.5775 114.201 53.165 116.793 51.5566 117.418C49.8589 118.044 48.608 118.044 47.5357 117.329C46.7315 116.793 44.1403 113.576 41.9065 110.181C39.5833 106.785 37.2601 104.015 36.6347 104.015C35.9198 104.015 34.0434 106.338 32.2564 109.198C30.4693 112.057 28.2355 114.827 27.2526 115.363C25.9123 116.078 24.9294 115.899 23.2317 114.559C21.9808 113.665 19.2109 109.376 16.977 105.087C14.7432 100.799 12.5988 97.4032 12.0626 97.5819C11.5265 97.7606 9.82881 100.352 8.30982 103.39C6.16535 107.411 4.82505 108.93 3.57411 108.93C2.32317 108.93 1.519 108.036 0.893529 106.07C0.357411 104.462 0 100.084 0 96.4203C0 91.5952 0.714823 87.1276 2.76994 80.3368C4.19958 75.1543 6.2547 68.3635 7.14823 65.1468C8.04176 61.9301 9.02464 55.4967 9.2927 50.8503C9.56076 46.204 10.633 39.1451 11.6159 35.2136C12.5988 31.282 14.7432 25.206 16.4409 21.8106C18.1386 18.4152 21.266 13.7689 23.4104 11.5351C25.5549 9.30123 29.0397 6.35259 31.2735 5.10165Z" fill="#353535"/>
<path d="M31.8096 9.12258C34.2221 7.51422 38.4217 5.63781 41.1023 4.92299C44.1403 4.02946 48.3399 3.5827 52.2714 3.85076C56.8284 4.02946 60.0451 4.83364 64.334 6.88875C68.1762 8.58646 71.4822 11.0883 74.0735 13.8583C76.2179 16.2708 79.1666 20.6491 80.5962 23.5977C82.1152 26.5464 84.081 31.9969 84.9745 35.6604C85.9574 39.3238 87.119 47.1869 87.5658 53.0842C88.2806 61.7514 89.1741 65.951 92.1228 74.9756C95.0714 83.9109 95.7862 87.8424 96.1436 94.6333C96.5011 101.692 96.3223 102.854 95.4288 101.424C94.8033 100.531 93.4631 98.5648 92.4802 96.9564C91.4079 95.3481 89.7102 94.0971 88.4593 93.9184C87.2084 93.8291 85.6894 94.1865 84.9745 94.812C84.3491 95.4374 82.2046 99.0115 80.4175 102.675C78.5411 106.338 76.3967 110.181 75.6818 111.164C74.4309 112.951 74.4309 112.951 72.9119 110.717C72.1077 109.466 70.2313 106.607 68.7123 104.283C66.3891 100.441 65.7637 99.9944 63.2618 100.262C60.6706 100.441 59.777 101.335 55.8455 107.143C53.3436 110.806 50.7524 113.844 50.0376 113.844C49.3227 113.844 46.7315 110.806 44.2296 107.143C40.2981 101.335 39.4046 100.441 36.8133 100.262C34.1327 99.9944 33.686 100.441 29.8438 106.517C25.9123 112.683 25.6442 112.861 24.3933 111.164C23.6785 110.181 21.6234 106.607 19.9257 103.122C18.2279 99.7264 16.0835 96.1523 15.2793 95.2587C14.4751 94.3652 13.0455 93.6504 12.0626 93.6504C11.0797 93.6504 9.65007 94.3652 8.84589 95.2587C8.04171 96.1523 6.61207 98.2967 4.19954 103.122L3.48472 100.441C3.03795 98.9222 3.12732 95.1694 3.66344 91.9527C4.1102 88.736 6.16531 80.9623 8.13108 74.5289C10.9904 65.4149 11.8839 60.5898 12.5094 52.1907C13.0455 46.2934 14.1177 38.4303 15.1006 34.7668C15.9941 31.1034 17.6025 26.457 18.5854 24.4913C19.5682 22.5255 21.8914 18.9514 23.8572 16.4495C25.8229 14.037 29.3077 10.7309 31.8096 9.12258Z" fill="#E4E4E4"/>
<path d="M62.1002 31.1927C61.3854 29.6737 60.4919 26.7251 60.1344 24.4912C59.8664 22.2574 59.9557 20.4704 60.4025 20.4704C60.8493 20.381 62.1002 21.0958 63.1724 21.9894C64.1553 22.8829 67.2827 26.0996 70.0526 29.1376C72.8226 32.2649 74.8777 35.1242 74.6096 35.6603C74.3416 36.1965 73.18 36.5539 71.929 36.5539C70.6781 36.5539 68.2656 35.9284 66.5679 35.2136C64.7808 34.4988 62.815 32.7117 62.1002 31.1927Z" fill="#353535"/>
<path d="M31.4522 28.4228C34.2221 26.8144 38.0643 25.0274 39.9407 24.4019C41.8171 23.7764 43.6042 23.2403 43.9616 23.2403C44.4083 23.1509 44.6764 23.3296 44.6764 23.5977C44.6764 23.8658 43.8722 25.6528 42.8893 27.6186C41.9065 29.5843 40.0301 31.9969 38.6004 32.9798C37.2601 34.052 34.8476 34.7668 33.0605 34.7668C31.3628 34.7668 29.0397 34.5881 27.8781 34.32C26.8058 34.052 26.0017 33.2478 26.091 32.533C26.1804 31.8182 28.5929 29.9418 31.4522 28.4228Z" fill="#353535"/>
<path d="M51.1261 35.4393C51.1533 35.6708 51.3663 35.8862 51.5302 36.0317C51.7563 36.2325 53.7215 36.8807 54 37" stroke="#353535" stroke-linecap="round"/>
<path d="M51 35C50.9485 35.0371 50.6682 35.4967 50.6242 35.5418C50.4341 35.7368 50.2363 35.9244 50.0396 36.1128C49.9265 36.221 49.8119 36.3277 49.6999 36.437C49.6647 36.4713 48.0268 36.9598 48 37" stroke="#353535" stroke-linecap="round"/>
</svg>
