<svg width="50" height="59" viewBox="0 0 50 59" fill="none" xmlns="http://www.w3.org/2000/svg">
<path d="M15.6368 2.55082C16.7537 1.88068 18.7641 1.03183 20.1044 0.674415C21.4447 0.317003 23.5445 0.00426808 24.7954 0.00426808C26.0017 -0.0404083 28.2355 0.272327 29.7098 0.629738C31.1841 1.03183 33.2393 1.836 34.2668 2.46147C35.3391 3.04227 37.0814 4.47191 38.1983 5.67817C39.3153 6.83976 40.9236 9.20761 41.7725 10.9053C42.6213 12.603 43.7382 15.641 44.2297 17.6068C44.7211 19.5725 45.3019 23.5041 45.5253 26.3187C45.838 30.3842 46.3295 32.6627 47.8038 37.2644C49.2334 41.6427 49.7249 44.0552 49.9482 47.0932C50.0823 49.5504 49.9482 51.7843 49.6355 52.8118C49.2781 54.0181 48.876 54.4648 48.2505 54.4648C47.6251 54.4648 46.9549 53.7053 45.9274 51.6949C45.1232 50.1759 44.2743 48.8803 44.0063 48.7909C43.7382 48.7463 42.666 50.3993 41.5491 52.5437C40.4322 54.6435 39.0472 56.788 38.4217 57.2794C37.5729 57.9496 37.0814 58.039 36.4113 57.6815C35.9198 57.4135 34.8029 56.0285 33.9094 54.5989C33.0159 53.1692 32.033 52.0076 31.7203 52.0076C31.4075 52.0076 30.2013 53.3926 29.0844 55.135C27.7887 57.1007 26.5825 58.3964 25.7783 58.7091C24.9294 59.0218 24.304 59.0218 23.7679 58.6644C23.3658 58.3964 22.0702 56.788 20.9532 55.0903C19.7917 53.3926 18.6301 52.0076 18.3173 52.0076C17.9599 52.0076 17.0217 53.1692 16.1282 54.5989C15.2347 56.0285 14.1178 57.4135 13.6263 57.6815C12.9562 58.039 12.4647 57.9496 11.6159 57.2794C10.9904 56.8327 9.60543 54.6882 8.48852 52.5437C7.37161 50.3993 6.29938 48.7016 6.03132 48.7909C5.76326 48.8803 4.91441 50.1759 4.15491 51.6949C3.08267 53.7053 2.41253 54.4648 1.78706 54.4648C1.16159 54.4648 0.759499 54.0181 0.446764 53.0352C0.178706 52.231 0 50.0419 0 48.2101C0 45.7976 0.357411 43.5638 1.38497 40.1684C2.09979 37.5771 3.12735 34.1817 3.57411 32.5734C4.02088 30.965 4.51232 27.7483 4.64635 25.4252C4.78038 23.102 5.31649 19.5725 5.80794 17.6068C6.29938 15.641 7.37161 12.603 8.22046 10.9053C9.06931 9.20761 10.633 6.88444 11.7052 5.76753C12.7775 4.65062 14.5198 3.17629 15.6368 2.55082Z" fill="#353535"/>
<path d="M15.9048 4.56126C17.1111 3.75708 19.2109 2.81888 20.5512 2.46147C22.0702 2.0147 24.17 1.79132 26.1357 1.92535C28.4142 2.0147 30.0226 2.41679 32.167 3.44435C34.0881 4.2932 35.7411 5.54414 37.0368 6.92911C38.109 8.13537 39.5833 10.3245 40.2981 11.7988C41.0576 13.2732 42.0405 15.9984 42.4873 17.8302C42.9787 19.6619 43.5595 23.5934 43.7829 26.5421C44.1403 30.8757 44.5871 32.9755 46.0614 37.4878C47.5357 41.9554 47.8931 43.9212 48.0718 47.3166C48.2506 50.846 48.1612 51.4268 47.7144 50.712C47.4017 50.2652 46.7316 49.2824 46.2401 48.4782C45.704 47.674 44.8551 47.0485 44.2297 46.9592C43.6042 46.9145 42.8447 47.0932 42.4873 47.406C42.1746 47.7187 41.1023 49.5057 40.2088 51.3375C39.2706 53.1692 38.1984 55.0903 37.8409 55.5817C37.2155 56.4753 37.2155 56.4753 36.456 55.3584C36.0539 54.7329 35.1157 53.3032 34.3562 52.1417C33.1946 50.2206 32.8819 49.9972 31.6309 50.1312C30.3353 50.2206 29.8885 50.6673 27.9228 53.5713C26.6718 55.403 25.3762 56.922 25.0188 56.922C24.6614 56.922 23.3658 55.403 22.1148 53.5713C20.1491 50.6673 19.7023 50.2206 18.4067 50.1312C17.0664 49.9972 16.843 50.2206 14.9219 53.2586C12.9562 56.3412 12.8221 56.4306 12.1967 55.5817C11.8393 55.0903 10.8117 53.3032 9.96286 51.5609C9.114 49.8632 8.04177 48.0761 7.63968 47.6293C7.2376 47.1826 6.52277 46.8252 6.03133 46.8252C5.53989 46.8252 4.82506 47.1826 4.42298 47.6293C4.02089 48.0761 3.30607 49.1483 2.0998 51.5609L1.74239 50.2206C1.51901 49.4611 1.56369 47.5847 1.83175 45.9763C2.05513 44.368 3.08269 40.4811 4.06557 37.2644C5.49521 32.7074 5.94198 30.2949 6.25471 26.0953C6.52277 23.1467 7.05888 19.2151 7.55032 17.3834C7.99709 15.5517 8.80127 13.2285 9.29271 12.2456C9.78415 11.2627 10.9457 9.47566 11.9286 8.22472C12.9115 7.01846 14.6539 5.36543 15.9048 4.56126Z" fill="#E4E4E4"/>
<path d="M31.0501 15.5964C30.6927 14.8369 30.2459 13.3626 30.0672 12.2457C29.9332 11.1288 29.9779 10.2352 30.2013 10.2352C30.4246 10.1905 31.0501 10.548 31.5862 10.9947C32.0777 11.4415 33.6413 13.0498 35.0263 14.5688C36.4113 16.1325 37.4388 17.5622 37.3048 17.8302C37.1708 18.0983 36.59 18.277 35.9645 18.277C35.339 18.277 34.1328 17.9642 33.2839 17.6068C32.3904 17.2494 31.4075 16.3559 31.0501 15.5964Z" fill="#353535"/>
<path d="M15.7261 14.2114C17.1111 13.4073 19.0321 12.5137 19.9704 12.201C20.9086 11.8883 21.8021 11.6202 21.9808 11.6202C22.2042 11.5755 22.3382 11.6649 22.3382 11.7989C22.3382 11.9329 21.9361 12.8265 21.4447 13.8093C20.9532 14.7922 20.015 15.9985 19.3002 16.4899C18.6301 17.026 17.4238 17.3835 16.5303 17.3835C15.6814 17.3835 14.5198 17.2941 13.939 17.1601C13.4029 17.026 13.0008 16.624 13.0455 16.2665C13.0902 15.9091 14.2964 14.9709 15.7261 14.2114Z" fill="#353535"/>
<path d="M21.0426 25.7379C21.0426 22.5212 21.1766 22.1192 22.3382 20.9129C23.1871 20.0194 24.0359 19.6173 24.9741 19.6173C25.9123 19.6173 26.8058 20.064 27.6994 20.9576C28.9503 22.2085 29.0397 22.4766 29.0397 25.7379C28.995 28.0611 28.7269 29.7588 28.2355 30.7864C27.7887 31.6799 26.9399 32.5288 26.2251 32.7968C25.4209 33.1096 24.6167 33.1096 23.7678 32.7968C23.0977 32.5288 22.2042 31.6799 21.8021 30.7864C21.2213 29.6695 20.9979 28.1951 21.0426 25.7379Z" fill="#353535"/>
</svg>
